<svg version="1" xmlns="http://www.w3.org/2000/svg" width="396" height="396" viewBox="0 0 297.000000 297.000000"><path d="M75.3 21.8L4 43.4v3.7c0 2 2.5 41.3 5.5 87.3s5.5 84.4 5.5 85.5c0 1.5 14.8 10.2 66.1 39.1 36.3 20.5 66.8 37.4 67.7 37.6 1 .3 30.7-16 67.2-36.9 64-36.4 65.5-37.3 66.2-40.7 1-4.9 10.3-173.8 9.6-174.5-1-1-141.2-44.5-143.3-44.4-1.1 0-34.1 9.8-73.2 21.7zm90.2-13l15 4.8L164 19l-16.5 5.3-15.8-5.3-15.8-5.4 16.3-4.7c9-2.6 16.8-4.8 17.3-4.8.6-.1 7.8 2.1 16 4.7zm2.1 26.9l21.4 6.6-20.3 7.4c-11.1 4-20.6 7.3-21 7.3-.7 0-34.4-11.6-39.7-13.6-.8-.3 7.3-3.6 18-7.4 10.7-3.7 19.7-6.8 19.8-6.9.2 0 10 2.9 21.8 6.6zm-92.2 1.1l15.7 5.8-22.3 7-22.3 7-16.7-5.5c-9.2-3-16.6-5.7-16.4-5.9.5-.4 43.8-14 45.2-14.1.6-.1 8.2 2.5 16.8 5.7zm189.4 3.4c8.4 2.3 14.9 4.5 14.5 4.9-.5.3-7.4 3.2-15.5 6.4l-14.7 5.7-21.8-7.5-21.8-7.5 15.5-4.9 15.5-5 6.5 1.9c3.6 1 13.4 3.7 21.8 6zm20.9 18.5c-.4 5.4-1 17.8-1.3 27.6l-.7 17.8-14.4 6.9c-7.9 3.8-15.3 7.2-16.5 7.6l-2.1.6.7-27.8c.4-15.4 1.1-28 1.4-28.2.4-.1 7.7-3.3 16.2-7.1s15.9-6.9 16.4-7c.5-.1.6 4.1.3 9.6zM173.4 71.4c9.9 3.6 18.2 6.6 18.5 6.7.4 0-9.5 3.8-21.8 8.4l-22.3 8.4-22.9-8.3-22.8-8.2 23.2-8c21.9-7.7 23.4-8.1 26.7-6.9 1.9.7 11.6 4.3 21.4 7.9zM89.2 82.9c.4.3 1.1 13.7 1.5 29.7l.8 29-19.9-9.3c-10.9-5.1-20-9.3-20.1-9.3-.3 0-.9-13.4-2.1-41.7l-.5-15.2 19.8 8c10.9 4.5 20.1 8.4 20.5 8.8zm105.9 31.9c-.4 16.1-1.1 29.5-1.4 29.8-.3.3-10.3 4.8-22.1 9.9l-21.6 9.4v-60.7l17.3-6.7c9.4-3.7 19.7-7.8 22.7-9 3-1.2 5.6-2.1 5.7-2 .1 0-.1 13.2-.6 29.3zM45.7 129.6c.2 0 .6 11.8 1 26.2.8 26 .8 26.1-1.2 24.8-1.1-.7-8.2-5.2-15.7-10-7.6-4.8-13.8-9.1-13.8-9.4 0-.4-.7-9.9-1.5-21.2-.8-11.3-1.5-22-1.5-23.8V113l16.3 8.2c8.9 4.6 16.3 8.3 16.4 8.4zm195.4 31.5c-.5 12.7-1.3 23.5-1.8 24-1 1-35.7 18.9-36.6 18.9-.4 0-.7-11.8-.7-26.3v-26.3l19.8-9.5 19.7-9.5.3 2.8c.2 1.5-.1 13.2-.7 25.9zM139.6 173c2 .8 2.1 1.6 2.7 30.2.3 16.1.4 29.4.3 29.5-.1.1-39.7-21.9-43.3-24.1 0-.1-.4-12.6-.8-27.9l-.8-27.7 19.9 9.6c11 5.3 20.8 10 22 10.4zm138.8 19c-.7 10.7-1.4 21.4-1.6 23.8l-.3 4.4-15.4 8.4c-8.5 4.6-15.6 8.2-15.9 7.9-.5-.5 1.5-45.5 2-46.1.5-.4 32.3-18.2 32.4-18.1 0 .1-.5 9-1.2 19.7zM74 205.4l17.5 9.3.6 8.4c.4 4.6 1 15 1.4 23.1l.7 14.7-19.6-10.7L55 239.5v-21.7c0-12 .3-21.8.8-21.8.4 0 8.6 4.3 18.2 9.4zm117.9 33.3c0 10.9-.4 21.9-.7 24.6l-.7 4.7-19.6 11.3-19.6 11.4-.7-11.1c-.3-6.1-.6-17.4-.6-25.1v-14l20.3-10.7c11.1-5.9 20.5-10.7 21-10.7.4-.1.7 8.8.6 19.6z"/></svg>